<mxfile host="app.diagrams.net" agent="Mozilla/5.0 (Windows NT 10.0; Win64; x64; rv:136.0) Gecko/20100101 Firefox/136.0" version="26.1.1">
  <diagram name="Page-1" id="USe7JkYApASF65cn7Bxd">
    <mxGraphModel dx="954" dy="1174" grid="1" gridSize="10" guides="1" tooltips="1" connect="1" arrows="1" fold="1" page="1" pageScale="1" pageWidth="850" pageHeight="1100" math="0" shadow="0">
      <root>
        <mxCell id="0" />
        <mxCell id="1" parent="0" />
        <mxCell id="eS0NiImWV8BJjzmMwiop-2" value="" style="rounded=0;whiteSpace=wrap;html=1;movable=0;resizable=0;rotatable=0;deletable=0;editable=0;locked=1;connectable=0;" vertex="1" parent="1">
          <mxGeometry x="190" y="190" width="720" height="700" as="geometry" />
        </mxCell>
        <mxCell id="uYjDv0PG9nmL270Jhfq2-1" value="Forensic&amp;nbsp;&lt;div&gt;student / professional&lt;/div&gt;" style="shape=umlActor;verticalLabelPosition=bottom;verticalAlign=top;html=1;outlineConnect=0;" parent="1" vertex="1">
          <mxGeometry x="90" y="360" width="30" height="60" as="geometry" />
        </mxCell>
        <mxCell id="uYjDv0PG9nmL270Jhfq2-3" value="Create new case()" style="ellipse;whiteSpace=wrap;html=1;" parent="1" vertex="1">
          <mxGeometry x="220" y="310" width="90" height="60" as="geometry" />
        </mxCell>
        <mxCell id="uYjDv0PG9nmL270Jhfq2-4" value="Open Existing case()" style="ellipse;whiteSpace=wrap;html=1;" parent="1" vertex="1">
          <mxGeometry x="220" y="410" width="90" height="60" as="geometry" />
        </mxCell>
        <mxCell id="uYjDv0PG9nmL270Jhfq2-5" value="" style="endArrow=none;html=1;rounded=0;" parent="1" edge="1">
          <mxGeometry width="50" height="50" relative="1" as="geometry">
            <mxPoint x="140" y="390" as="sourcePoint" />
            <mxPoint x="220" y="340" as="targetPoint" />
          </mxGeometry>
        </mxCell>
        <mxCell id="uYjDv0PG9nmL270Jhfq2-6" value="" style="endArrow=none;html=1;rounded=0;entryX=0;entryY=0.5;entryDx=0;entryDy=0;" parent="1" target="uYjDv0PG9nmL270Jhfq2-4" edge="1">
          <mxGeometry width="50" height="50" relative="1" as="geometry">
            <mxPoint x="140" y="390" as="sourcePoint" />
            <mxPoint x="230" y="350" as="targetPoint" />
          </mxGeometry>
        </mxCell>
        <mxCell id="uYjDv0PG9nmL270Jhfq2-7" value="Add Plane()" style="ellipse;whiteSpace=wrap;html=1;" parent="1" vertex="1">
          <mxGeometry x="220" y="512" width="90" height="60" as="geometry" />
        </mxCell>
        <mxCell id="uYjDv0PG9nmL270Jhfq2-9" value="Right-wall" style="ellipse;whiteSpace=wrap;html=1;" parent="1" vertex="1">
          <mxGeometry x="640" y="352" width="90" height="60" as="geometry" />
        </mxCell>
        <mxCell id="uYjDv0PG9nmL270Jhfq2-10" value="Left-wall" style="ellipse;whiteSpace=wrap;html=1;" parent="1" vertex="1">
          <mxGeometry x="640" y="432" width="90" height="60" as="geometry" />
        </mxCell>
        <mxCell id="uYjDv0PG9nmL270Jhfq2-11" value="Front-wall" style="ellipse;whiteSpace=wrap;html=1;" parent="1" vertex="1">
          <mxGeometry x="640" y="512" width="90" height="60" as="geometry" />
        </mxCell>
        <mxCell id="uYjDv0PG9nmL270Jhfq2-12" value="Back-wall" style="ellipse;whiteSpace=wrap;html=1;" parent="1" vertex="1">
          <mxGeometry x="640" y="592" width="90" height="60" as="geometry" />
        </mxCell>
        <mxCell id="uYjDv0PG9nmL270Jhfq2-13" value="Floor" style="ellipse;whiteSpace=wrap;html=1;" parent="1" vertex="1">
          <mxGeometry x="640" y="682" width="90" height="60" as="geometry" />
        </mxCell>
        <mxCell id="uYjDv0PG9nmL270Jhfq2-19" value="" style="endArrow=classic;startArrow=classic;html=1;rounded=0;dashed=1;entryX=0;entryY=0.5;entryDx=0;entryDy=0;exitX=1;exitY=0.5;exitDx=0;exitDy=0;" parent="1" source="uYjDv0PG9nmL270Jhfq2-7" target="uYjDv0PG9nmL270Jhfq2-9" edge="1">
          <mxGeometry width="50" height="50" relative="1" as="geometry">
            <mxPoint x="132" y="505" as="sourcePoint" />
            <mxPoint x="230" y="552" as="targetPoint" />
          </mxGeometry>
        </mxCell>
        <mxCell id="uYjDv0PG9nmL270Jhfq2-20" value="&amp;lt;&amp;lt;extends&amp;gt;&amp;gt;" style="edgeLabel;html=1;align=center;verticalAlign=middle;resizable=0;points=[];" parent="uYjDv0PG9nmL270Jhfq2-19" vertex="1" connectable="0">
          <mxGeometry x="-0.0211" y="1" relative="1" as="geometry">
            <mxPoint as="offset" />
          </mxGeometry>
        </mxCell>
        <mxCell id="uYjDv0PG9nmL270Jhfq2-21" value="" style="endArrow=classic;startArrow=classic;html=1;rounded=0;dashed=1;entryX=0;entryY=0.5;entryDx=0;entryDy=0;exitX=1;exitY=0.5;exitDx=0;exitDy=0;" parent="1" source="uYjDv0PG9nmL270Jhfq2-7" target="uYjDv0PG9nmL270Jhfq2-10" edge="1">
          <mxGeometry width="50" height="50" relative="1" as="geometry">
            <mxPoint x="320" y="552" as="sourcePoint" />
            <mxPoint x="430" y="392" as="targetPoint" />
          </mxGeometry>
        </mxCell>
        <mxCell id="uYjDv0PG9nmL270Jhfq2-22" value="&amp;lt;&amp;lt;extends&amp;gt;&amp;gt;" style="edgeLabel;html=1;align=center;verticalAlign=middle;resizable=0;points=[];" parent="uYjDv0PG9nmL270Jhfq2-21" vertex="1" connectable="0">
          <mxGeometry x="-0.0211" y="1" relative="1" as="geometry">
            <mxPoint as="offset" />
          </mxGeometry>
        </mxCell>
        <mxCell id="uYjDv0PG9nmL270Jhfq2-23" value="" style="endArrow=classic;startArrow=classic;html=1;rounded=0;dashed=1;entryX=0;entryY=0.5;entryDx=0;entryDy=0;exitX=1;exitY=0.5;exitDx=0;exitDy=0;" parent="1" source="uYjDv0PG9nmL270Jhfq2-7" target="uYjDv0PG9nmL270Jhfq2-11" edge="1">
          <mxGeometry width="50" height="50" relative="1" as="geometry">
            <mxPoint x="330" y="562" as="sourcePoint" />
            <mxPoint x="440" y="402" as="targetPoint" />
          </mxGeometry>
        </mxCell>
        <mxCell id="uYjDv0PG9nmL270Jhfq2-24" value="&amp;lt;&amp;lt;extends&amp;gt;&amp;gt;" style="edgeLabel;html=1;align=center;verticalAlign=middle;resizable=0;points=[];" parent="uYjDv0PG9nmL270Jhfq2-23" vertex="1" connectable="0">
          <mxGeometry x="-0.0211" y="1" relative="1" as="geometry">
            <mxPoint as="offset" />
          </mxGeometry>
        </mxCell>
        <mxCell id="uYjDv0PG9nmL270Jhfq2-25" value="" style="endArrow=classic;startArrow=classic;html=1;rounded=0;dashed=1;entryX=0;entryY=0.5;entryDx=0;entryDy=0;exitX=1;exitY=0.5;exitDx=0;exitDy=0;" parent="1" source="uYjDv0PG9nmL270Jhfq2-7" target="uYjDv0PG9nmL270Jhfq2-12" edge="1">
          <mxGeometry width="50" height="50" relative="1" as="geometry">
            <mxPoint x="340" y="572" as="sourcePoint" />
            <mxPoint x="450" y="412" as="targetPoint" />
          </mxGeometry>
        </mxCell>
        <mxCell id="uYjDv0PG9nmL270Jhfq2-26" value="&amp;lt;&amp;lt;extends&amp;gt;&amp;gt;" style="edgeLabel;html=1;align=center;verticalAlign=middle;resizable=0;points=[];" parent="uYjDv0PG9nmL270Jhfq2-25" vertex="1" connectable="0">
          <mxGeometry x="-0.0211" y="1" relative="1" as="geometry">
            <mxPoint as="offset" />
          </mxGeometry>
        </mxCell>
        <mxCell id="uYjDv0PG9nmL270Jhfq2-27" value="" style="endArrow=classic;startArrow=classic;html=1;rounded=0;dashed=1;entryX=0;entryY=0.5;entryDx=0;entryDy=0;exitX=1;exitY=0.5;exitDx=0;exitDy=0;" parent="1" source="uYjDv0PG9nmL270Jhfq2-7" target="uYjDv0PG9nmL270Jhfq2-13" edge="1">
          <mxGeometry width="50" height="50" relative="1" as="geometry">
            <mxPoint x="350" y="582" as="sourcePoint" />
            <mxPoint x="460" y="422" as="targetPoint" />
          </mxGeometry>
        </mxCell>
        <mxCell id="uYjDv0PG9nmL270Jhfq2-28" value="&amp;lt;&amp;lt;extends&amp;gt;&amp;gt;" style="edgeLabel;html=1;align=center;verticalAlign=middle;resizable=0;points=[];" parent="uYjDv0PG9nmL270Jhfq2-27" vertex="1" connectable="0">
          <mxGeometry x="-0.0211" y="1" relative="1" as="geometry">
            <mxPoint as="offset" />
          </mxGeometry>
        </mxCell>
        <mxCell id="uYjDv0PG9nmL270Jhfq2-30" value="Add Points" style="ellipse;whiteSpace=wrap;html=1;" parent="1" vertex="1">
          <mxGeometry x="220" y="682" width="90" height="60" as="geometry" />
        </mxCell>
        <mxCell id="uYjDv0PG9nmL270Jhfq2-41" value="" style="endArrow=classic;startArrow=classic;html=1;rounded=0;dashed=1;entryX=0.5;entryY=1;entryDx=0;entryDy=0;exitX=0.5;exitY=0;exitDx=0;exitDy=0;" parent="1" source="uYjDv0PG9nmL270Jhfq2-30" target="uYjDv0PG9nmL270Jhfq2-7" edge="1">
          <mxGeometry width="50" height="50" relative="1" as="geometry">
            <mxPoint x="130" y="602" as="sourcePoint" />
            <mxPoint x="230" y="552" as="targetPoint" />
          </mxGeometry>
        </mxCell>
        <mxCell id="uYjDv0PG9nmL270Jhfq2-42" value="&amp;lt;&amp;lt;includes&amp;gt;&amp;gt;" style="edgeLabel;html=1;align=center;verticalAlign=middle;resizable=0;points=[];" parent="uYjDv0PG9nmL270Jhfq2-41" vertex="1" connectable="0">
          <mxGeometry x="0.0023" relative="1" as="geometry">
            <mxPoint as="offset" />
          </mxGeometry>
        </mxCell>
        <mxCell id="uYjDv0PG9nmL270Jhfq2-43" value="Annotate Spatters" style="ellipse;whiteSpace=wrap;html=1;" parent="1" vertex="1">
          <mxGeometry x="220" y="832" width="90" height="60" as="geometry" />
        </mxCell>
        <mxCell id="uYjDv0PG9nmL270Jhfq2-44" value="" style="endArrow=classic;startArrow=classic;html=1;rounded=0;dashed=1;entryX=0.5;entryY=1;entryDx=0;entryDy=0;exitX=0.5;exitY=0;exitDx=0;exitDy=0;" parent="1" source="uYjDv0PG9nmL270Jhfq2-43" target="uYjDv0PG9nmL270Jhfq2-30" edge="1">
          <mxGeometry width="50" height="50" relative="1" as="geometry">
            <mxPoint x="380" y="902" as="sourcePoint" />
            <mxPoint x="380" y="792" as="targetPoint" />
          </mxGeometry>
        </mxCell>
        <mxCell id="uYjDv0PG9nmL270Jhfq2-45" value="&amp;lt;&amp;lt;includes&amp;gt;&amp;gt;" style="edgeLabel;html=1;align=center;verticalAlign=middle;resizable=0;points=[];" parent="uYjDv0PG9nmL270Jhfq2-44" vertex="1" connectable="0">
          <mxGeometry x="0.0023" relative="1" as="geometry">
            <mxPoint as="offset" />
          </mxGeometry>
        </mxCell>
        <mxCell id="_AARv4OHIewm0ZB3Cl0f-1" value="Calculate Impact Angle ()" style="ellipse;whiteSpace=wrap;html=1;" parent="1" vertex="1">
          <mxGeometry x="440" y="832" width="90" height="60" as="geometry" />
        </mxCell>
        <mxCell id="_AARv4OHIewm0ZB3Cl0f-2" value="" style="endArrow=classic;startArrow=classic;html=1;rounded=0;dashed=1;entryX=1;entryY=0.5;entryDx=0;entryDy=0;exitX=0;exitY=0.5;exitDx=0;exitDy=0;" parent="1" source="_AARv4OHIewm0ZB3Cl0f-1" target="uYjDv0PG9nmL270Jhfq2-43" edge="1">
          <mxGeometry width="50" height="50" relative="1" as="geometry">
            <mxPoint x="600" y="902" as="sourcePoint" />
            <mxPoint x="485" y="742" as="targetPoint" />
          </mxGeometry>
        </mxCell>
        <mxCell id="_AARv4OHIewm0ZB3Cl0f-3" value="&amp;lt;&amp;lt;includes&amp;gt;&amp;gt;" style="edgeLabel;html=1;align=center;verticalAlign=middle;resizable=0;points=[];" parent="_AARv4OHIewm0ZB3Cl0f-2" vertex="1" connectable="0">
          <mxGeometry x="0.0023" relative="1" as="geometry">
            <mxPoint as="offset" />
          </mxGeometry>
        </mxCell>
        <mxCell id="eS0NiImWV8BJjzmMwiop-1" value="&lt;h1 style=&quot;margin-top: 0px;&quot;&gt;USE CASE DIAGRAM&lt;/h1&gt;" style="text;html=1;whiteSpace=wrap;overflow=hidden;rounded=0;" vertex="1" parent="1">
          <mxGeometry x="190" y="150" width="410" height="50" as="geometry" />
        </mxCell>
        <mxCell id="eS0NiImWV8BJjzmMwiop-4" value="Create Data.json and Assets.json" style="ellipse;whiteSpace=wrap;html=1;" vertex="1" parent="1">
          <mxGeometry x="390" y="350" width="105" height="70" as="geometry" />
        </mxCell>
        <mxCell id="eS0NiImWV8BJjzmMwiop-5" value="" style="endArrow=classic;startArrow=classic;html=1;rounded=0;dashed=1;entryX=1;entryY=0.5;entryDx=0;entryDy=0;" edge="1" parent="1" target="uYjDv0PG9nmL270Jhfq2-3">
          <mxGeometry width="50" height="50" relative="1" as="geometry">
            <mxPoint x="390" y="385" as="sourcePoint" />
            <mxPoint x="350" y="450" as="targetPoint" />
          </mxGeometry>
        </mxCell>
        <mxCell id="eS0NiImWV8BJjzmMwiop-6" value="&amp;lt;&amp;lt;includes&amp;gt;&amp;gt;" style="edgeLabel;html=1;align=center;verticalAlign=middle;resizable=0;points=[];" vertex="1" connectable="0" parent="eS0NiImWV8BJjzmMwiop-5">
          <mxGeometry x="0.0023" relative="1" as="geometry">
            <mxPoint as="offset" />
          </mxGeometry>
        </mxCell>
        <mxCell id="eS0NiImWV8BJjzmMwiop-9" value="" style="endArrow=classic;startArrow=classic;html=1;rounded=0;dashed=1;entryX=1;entryY=0.5;entryDx=0;entryDy=0;exitX=0;exitY=0.5;exitDx=0;exitDy=0;" edge="1" parent="1" source="eS0NiImWV8BJjzmMwiop-4" target="uYjDv0PG9nmL270Jhfq2-4">
          <mxGeometry width="50" height="50" relative="1" as="geometry">
            <mxPoint x="387" y="386" as="sourcePoint" />
            <mxPoint x="320" y="350" as="targetPoint" />
          </mxGeometry>
        </mxCell>
        <mxCell id="eS0NiImWV8BJjzmMwiop-10" value="&amp;lt;&amp;lt;includes&amp;gt;&amp;gt;" style="edgeLabel;html=1;align=center;verticalAlign=middle;resizable=0;points=[];" vertex="1" connectable="0" parent="eS0NiImWV8BJjzmMwiop-9">
          <mxGeometry x="0.0023" relative="1" as="geometry">
            <mxPoint as="offset" />
          </mxGeometry>
        </mxCell>
      </root>
    </mxGraphModel>
  </diagram>
</mxfile>
